<?xml version="1.0" encoding="UTF-8" standalone="no"?>
<!-- Created with Inkscape (http://www.inkscape.org/) -->

<svg
   version="1.1"
   id="svg2"
   xml:space="preserve"
   width="5333.3335"
   height="4000"
   viewBox="0 0 5333.3335 4000"
   sodipodi:docname="vecteezy_confused-man-with-question-mark-concept-flat-illustration_.eps"
   xmlns:inkscape="http://www.inkscape.org/namespaces/inkscape"
   xmlns:sodipodi="http://sodipodi.sourceforge.net/DTD/sodipodi-0.dtd"
   xmlns="http://www.w3.org/2000/svg"
   xmlns:svg="http://www.w3.org/2000/svg"><defs
     id="defs6" /><sodipodi:namedview
     id="namedview4"
     pagecolor="#ffffff"
     bordercolor="#666666"
     borderopacity="1.0"
     inkscape:pageshadow="2"
     inkscape:pageopacity="0.0"
     inkscape:pagecheckerboard="0" /><g
     id="g8"
     inkscape:groupmode="layer"
     inkscape:label="ink_ext_XXXXXX"
     transform="matrix(1.3333333,0,0,-1.3333333,0,4000)"><g
       id="g10"
       transform="scale(0.1)"><path
         d="M 40000,0 H 0 V 30000 H 40000 V 0"
         style="fill:#ffffff;fill-opacity:1;fill-rule:nonzero;stroke:none"
         id="path12" /><path
         d="m 22934.6,4548.2 c 4600.7,0 5202.3,2654.2 4742.2,4388.3 4423.7,1911.1 2441.9,6440.9 -141.5,6440.9 2654.2,1769.5 1734,4919.2 -318.6,5060.8 1274.1,3574.3 -4954.5,6511.7 -7573.3,2477.2 -3892.9,1167.9 -8576.1,-1203.2 -7726.8,-4919.1 -4435.49,-2500.9 -1250.4,-6488.1 1392,-6334.8 C 9061.85,9255 9734.25,6954.7 12494.6,5963.8 15255,4972.9 22934.6,4548.2 22934.6,4548.2"
         style="fill:#eaf4fe;fill-opacity:1;fill-rule:nonzero;stroke:none"
         id="path14" /><path
         d="m 22300,5258.3 c 3605.7,0 4077.2,2080.2 3716.7,3439.3 3467,1497.8 1254.8,5382.2 -770,5382.2 2080.3,1386.8 1608.7,3899.9 0,4010.8 1619.6,3563.8 -3444.6,6865.7 -5526.2,1562.9 -3051,915.3 -5779.9,382.2 -5114.3,-2530.2 -3476.3,-1960 -1669.9,-4720.8 401.1,-4600.6 -3328.4,-1886.1 -3053,-5378.3 -889.6,-6154.9 C 16281.2,5591.1 22300,5258.3 22300,5258.3"
         style="fill:#dde9f5;fill-opacity:1;fill-rule:nonzero;stroke:none"
         id="path16" /><path
         d="m 21968.3,7693.7 c 2568,0 2903.8,1481.6 2647,2449.5 3344.6,-74.2 893.7,3833.3 -548.3,3833.3 1481.5,987.7 632.6,2914.5 -513.1,2993.5 1153.5,2538.1 -1940.2,4752.7 -3422.7,976.1 -3212.9,2120.5 -3704.6,-87.5 -3230.5,-2161.7 -3892.9,265.4 -979.6,-3376.8 495.4,-3291.2 -4459.1,-867.1 -3593.4,-4295.3 -2052.6,-4848.4 1540.8,-553.1 6624.8,48.9 6624.8,48.9"
         style="fill:#cadae8;fill-opacity:1;fill-rule:nonzero;stroke:none"
         id="path18" /><path
         d="m 15364.4,22369.1 -3044.8,-1121.2 c -174.8,-64.3 -368.6,25.2 -432.9,199.9 l -850.3,2309.3 c -64.4,174.8 25.1,368.6 199.8,432.9 l 3044.9,1121.2 c 174.7,64.3 368.6,-25.2 432.9,-199.9 l 850.3,-2309.4 c 64.4,-174.7 -25.1,-368.5 -199.9,-432.8"
         style="fill:#cadae8;fill-opacity:1;fill-rule:nonzero;stroke:none"
         id="path20" /><path
         d="m 14148.5,22089 1166,-480.1 -290.2,849 z"
         style="fill:#cadae8;fill-opacity:1;fill-rule:nonzero;stroke:none"
         id="path22" /><path
         d="m 12566.4,23006.3 c -6.7,76.3 -74,132.6 -150.3,125.9 -76.3,-6.8 -132.6,-74.1 -125.9,-150.4 6.8,-76.3 74.1,-132.6 150.4,-125.9 76.3,6.8 132.6,74.1 125.8,150.4"
         style="fill:#f5f9fd;fill-opacity:1;fill-rule:nonzero;stroke:none"
         id="path24" /><path
         d="m 13458.8,23276.8 c -6.7,76.3 -74.1,132.6 -150.3,125.9 -76.3,-6.8 -132.7,-74.1 -125.9,-150.4 6.8,-76.3 74.1,-132.6 150.4,-125.9 76.2,6.8 132.6,74.1 125.8,150.4"
         style="fill:#f5f9fd;fill-opacity:1;fill-rule:nonzero;stroke:none"
         id="path26" /><path
         d="m 14341.9,23587.1 c -6.8,76.3 -74.1,132.6 -150.4,125.8 -76.3,-6.7 -132.6,-74 -125.8,-150.3 6.7,-76.3 74,-132.6 150.3,-125.9 76.3,6.8 132.6,74.1 125.9,150.4"
         style="fill:#f5f9fd;fill-opacity:1;fill-rule:nonzero;stroke:none"
         id="path28" /><path
         d="m 16218.3,8154.7 c -35.4,94.3 -1397.9,601.6 -1569,530.8 -171,-70.8 -541,-681.2 -541,-681.2 122.2,-392.3 942.1,-742.8 1419.9,-818.2 477.7,-75.4 725.5,874.2 690.1,968.6"
         style="fill:#e04545;fill-opacity:1;fill-rule:nonzero;stroke:none"
         id="path30" /><path
         d="m 14627.6,8262.4 c 1132.5,23.6 2254.3,-10.4 2320.7,-178.5 66.3,-168.1 -822.5,-2786.9 -958.2,-3152.6 -135.7,-365.7 -424.7,-1557.2 -424.7,-1557.2 -1226.8,-120.9 -2176.4,693.1 -2070.9,1524.8 65.9,519.2 342.5,1179.1 431.2,1471.6 277.2,914.2 701.9,1891.9 701.9,1891.9"
         style="fill:#ffc5a6;fill-opacity:1;fill-rule:nonzero;stroke:none"
         id="path32" /><path
         d="m 16690.1,7610.2 -369.7,-1375.4 -872.9,-312.6 1144.2,-76.7 25.6,-1.6 c 181.2,666.2 365.7,1431.4 325.4,1533.7 -18.9,47.9 -108.4,134.2 -252.6,232.6"
         style="fill:#f0a17d;fill-opacity:1;fill-rule:nonzero;stroke:none"
         id="path34" /><path
         d="m 15813.1,11782.1 c -238,-318.4 -534.1,-900.2 -818.6,-1522.5 -530,-1159.1 -886.2,-2255.3 -886.2,-2255.3 743.2,309.6 2307.6,-79.7 2829.6,-743.2 488.4,-620.9 591.6,2610 591.6,2610 l -1716.4,1911"
         style="fill:#f95959;fill-opacity:1;fill-rule:nonzero;stroke:none"
         id="path36" /><path
         d="m 17358.9,10061.1 -373.8,416.2 -675.4,752 -63,40.8 362.7,-1956.4 78.5,-3025.8 c 330.8,-143.8 -55.5,987.9 116.2,769.7 124.7,-158.6 233.1,-52.2 325.3,193.6 l 229.5,2809.9"
         style="fill:#e04545;fill-opacity:1;fill-rule:nonzero;stroke:none"
         id="path38" /><path
         d="m 25132.4,7208 c -551.5,-150.4 -1232.7,-150.4 -1232.7,-150.4 l 194.6,1486.4 902.5,-645.9 135.6,-690.1"
         style="fill:#e04545;fill-opacity:1;fill-rule:nonzero;stroke:none"
         id="path40" /><path
         d="m 18617.8,13516.2 -2804.7,-1734.1 1026.3,-2391.7 -731.3,-4341.2 c 0,0 5851.1,-365.7 5886.4,-342.1 35.4,23.6 1415.6,4404 1415.6,4404 l 1480.5,2644.5 -3031.5,1623.5 -3241.3,137.1"
         style="fill:#f95959;fill-opacity:1;fill-rule:nonzero;stroke:none"
         id="path42" /><path
         d="m 18703.3,14227 c 1228.3,222.6 3046.5,-162.3 3046.5,-162.3 l -2163.2,-2472.8 -883.3,2635.1"
         style="fill:#e04545;fill-opacity:1;fill-rule:nonzero;stroke:none"
         id="path44" /><path
         d="m 18706.3,15993.5 c 353.9,-1008.6 477.7,-2999.3 460,-4025.6 752,-911.3 1919.9,-309.6 2335.7,265.4 -17.7,1946.5 283.2,2990.5 283.2,2990.5 0,0 -1601.4,1220.9 -3078.9,769.7"
         style="fill:#ffc5a6;fill-opacity:1;fill-rule:nonzero;stroke:none"
         id="path46" /><path
         d="m 18706.3,15993.5 c 210.2,-599.2 339.3,-1545 405.7,-2429.3 l 2476.6,513.4 c 83.5,752.8 196.6,1146.2 196.6,1146.2 0,0 -1601.4,1220.9 -3078.9,769.7"
         style="fill:#f0a17d;fill-opacity:1;fill-rule:nonzero;stroke:none"
         id="path48" /><path
         d="m 19724.4,22829.2 c 967.2,-384.7 1736,-1401.1 1985.2,-1911.5 168.5,-344.9 195,-1736.9 507.5,-2325.2 312.5,-588.2 619.9,-866.4 699.4,-1524.9 79.4,-658.5 144.3,-2470.5 -139.3,-2765.9 -283.5,-295.4 -1210.1,-434.7 -2881.5,849.4 -1671.4,1284.1 -2554.1,2512.5 -2718.4,2826.2 -164.4,313.6 -1445.4,1617.3 -939.8,2434.9 505.5,817.7 3486.9,2417 3486.9,2417"
         style="fill:#ffc5a6;fill-opacity:1;fill-rule:nonzero;stroke:none"
         id="path50" /><path
         d="m 22474.1,15772.2 c -161.2,-262.1 -683.7,-155.2 -749.9,-114.1 93.9,-302 542,-497.3 632.6,-374.1 90.6,123.3 117.3,488.2 117.3,488.2"
         style="fill:#f0a17d;fill-opacity:1;fill-rule:nonzero;stroke:none"
         id="path52" /><path
         d="m 22245,16723 c -576.2,-141.4 -572.4,-512.7 -563.1,-644 7.9,-113.3 115.2,-311.3 330.7,-273.5 215.5,37.9 462.3,485 173.4,704.8 -80.5,82.2 59,212.7 59,212.7"
         style="fill:#6b3f30;fill-opacity:1;fill-rule:nonzero;stroke:none"
         id="path54" /><path
         d="m 18629.5,16383.3 c 0,0 -474.6,957.9 -489.8,1020.5 -351.3,1156.6 -518.7,2482.8 -518.7,2482.8 -468.9,10.2 -956.5,-5.3 -956.5,-5.3 0,0 1076.9,1222.3 2427.8,1778.3 1350.9,556 1426.6,532.2 1426.6,532.2 318.3,-141.7 666.2,-511.2 908.6,-808.9 0.3,295.2 -218.4,1666.3 -422.4,1875.3 -204,209 -924.7,-92.2 -1047.7,-69.5 -123,22.7 -980.5,565.3 -1683.1,416.8 -702.6,-148.4 -1357.1,-1432.3 -1641,-1881.2 -283.9,-448.9 -945.6,-1475.6 -1022.9,-1853.2 -77.4,-377.6 1291.7,-2416.9 2012.7,-2977.5 721,-560.7 1006.4,-510.3 1006.4,-510.3"
         style="fill:#233142;fill-opacity:1;fill-rule:nonzero;stroke:none"
         id="path56" /><path
         d="m 21697,16008.1 c 37.1,-108.6 140.7,-233.3 315.6,-202.6 118.1,20.8 245.5,164.6 289,326.4 -138.7,18.4 -382.8,21.3 -604.6,-123.8"
         style="fill:#ff7e67;fill-opacity:1;fill-rule:nonzero;stroke:none"
         id="path58" /><path
         d="m 22026,17815.2 c -84.8,-415.7 -695.3,-550.2 -830.5,-535.8 385.3,-322.7 603,-195.8 753.7,25.4 150.6,221.1 76.8,510.4 76.8,510.4"
         style="fill:#f08d6c;fill-opacity:1;fill-rule:nonzero;stroke:none"
         id="path60" /><path
         d="m 20386.7,18594.2 c 53.3,-185.7 -14.5,-368 -151.4,-407.3 -137,-39.3 -291.2,79.3 -344.5,264.9 -53.3,185.6 14.6,367.9 151.5,407.3 136.9,39.3 291.1,-79.3 344.4,-264.9"
         style="fill:#233142;fill-opacity:1;fill-rule:nonzero;stroke:none"
         id="path62" /><path
         d="m 20254.9,18777.1 c 42.6,-51.1 46.6,-117.9 8.9,-149.3 -37.7,-31.5 -102.8,-15.5 -145.4,35.6 -42.6,51.1 -46.5,117.9 -8.8,149.4 37.7,31.4 102.7,15.4 145.3,-35.7"
         style="fill:#455d7a;fill-opacity:1;fill-rule:nonzero;stroke:none"
         id="path64" /><path
         d="m 21689.4,19243.7 c 53.7,-165.8 5.2,-330 -108.3,-366.7 -113.4,-36.7 -248.9,67.9 -302.5,233.8 -53.7,165.8 -5.2,329.9 108.3,366.6 113.4,36.8 248.9,-67.9 302.5,-233.7"
         style="fill:#233142;fill-opacity:1;fill-rule:nonzero;stroke:none"
         id="path66" /><path
         d="m 19186.7,20606.5 c 187.1,-196.9 200.8,-265.1 -71.1,-656.8 -434.3,-625.8 -304,-833.3 -345.2,-867 -41.2,-33.8 -227.2,283.7 -104,708.2 92.7,319.4 450.2,889.3 520.3,815.6"
         style="fill:#233142;fill-opacity:1;fill-rule:nonzero;stroke:none"
         id="path68" /><path
         d="m 20695.7,21122.1 c -60.2,-228 220.2,-271.7 338.8,-258.8 513.2,55.7 584.1,-234.5 630.5,-227.2 46.3,7.4 14.1,279.9 -263.3,438 -208.8,118.9 -683.5,133.4 -706,48"
         style="fill:#233142;fill-opacity:1;fill-rule:nonzero;stroke:none"
         id="path70" /><path
         d="m 20118,22928.3 c -983.8,-95.7 -1493.1,-570.8 -1493.1,-570.8 -1490.6,-216.7 -2321.5,-1776.8 -2321.5,-1776.8 883.9,2136.4 1522.6,2889.6 2283.8,2882.2 761.2,-7.4 1530.8,-534.6 1530.8,-534.6"
         style="fill:#455d7a;fill-opacity:1;fill-rule:nonzero;stroke:none"
         id="path72" /><path
         d="m 20360,22782.7 c 226.5,-91.9 285.2,-389.4 285.2,-389.4 13.6,477.6 294.8,861.6 294.8,861.6 -328.7,-98.7 -737.2,-129.3 -737.2,-129.3 145.3,-200.8 157.2,-342.9 157.2,-342.9"
         style="fill:#455d7a;fill-opacity:1;fill-rule:nonzero;stroke:none"
         id="path74" /><path
         d="m 21563.3,19413.2 c 39.3,-47.2 46.7,-105.7 16.5,-130.9 -30.1,-25.1 -86.4,-7.3 -125.7,39.9 -39.3,47.1 -46.7,105.7 -16.5,130.8 30.1,25.1 86.4,7.3 125.7,-39.8"
         style="fill:#455d7a;fill-opacity:1;fill-rule:nonzero;stroke:none"
         id="path76" /><path
         d="m 22784.9,14356.7 c 121.1,136.9 196.8,529.3 193.9,1028.1 -76.8,57.4 -397.8,84.4 -468.2,104.4 -403.4,64.2 -203.4,-69.3 -775.6,-14.8 -76.9,7.4 -469.7,102.7 -613.4,91.5 -345.9,-27.2 -294.9,-454.2 -112.1,-625.3 292.3,-273.4 1300.6,-383.3 1300.6,-383.3 -182.8,-200.6 -253.4,-307.2 -333.3,-492.6 582.4,-129.1 656.7,120.8 808.1,292"
         style="fill:#f0a17d;fill-opacity:1;fill-rule:nonzero;stroke:none"
         id="path78" /><path
         d="m 18703.3,14227 c 123.9,-230.1 760.9,-861.2 760.9,-861.2 l 123.8,-1740 696,1781.3 1465.8,657.6 409.9,-1120.6 c -566.2,-769.7 -2621.8,-1622 -2648.3,-1622 -725.5,734.3 -1185.6,1999.5 -1185.6,1999.5 l 377.5,905.4"
         style="fill:#f95959;fill-opacity:1;fill-rule:nonzero;stroke:none"
         id="path80" /><path
         d="m 19361,13259.6 -1150.2,-1610.2 -79.6,1574.8 572.1,1002.8 657.7,-967.4"
         style="fill:#f95959;fill-opacity:1;fill-rule:nonzero;stroke:none"
         id="path82" /><path
         d="m 20402,13218.3 536.8,-1834.3 1220.9,1474.6 -409.9,1206.1 -1347.8,-846.4"
         style="fill:#f95959;fill-opacity:1;fill-rule:nonzero;stroke:none"
         id="path84" /><path
         d="m 18172.5,11714.3 1013.3,1300.1 272.4,-1514.6 -59,-229.7 -2869.4,706.7 1601.4,1037.6 41.3,-1300.1"
         style="fill:#e04545;fill-opacity:1;fill-rule:nonzero;stroke:none"
         id="path86" /><path
         d="m 20402,13218.3 -849.3,-1946.4 2992.6,0.3 -480,1391.7 -838.3,-1214.7 -825,1769.1"
         style="fill:#e04545;fill-opacity:1;fill-rule:nonzero;stroke:none"
         id="path88" /><path
         d="m 19586.6,11591.9 -287.6,-721.1 123,-451.2 -872.6,-5520.7 -106.5,6.5 918.1,5492.1 -154.9,508.7 381.9,719.6"
         style="fill:#e04545;fill-opacity:1;fill-rule:nonzero;stroke:none"
         id="path90" /><path
         d="m 20618.7,4402.9 c 0,0 -3496.1,-899 -5053.3,-1028.8 -1067.6,165.2 -1544,390.3 -1444.1,1044.6 99.8,654.4 479.7,1285.2 1532.6,1466.1 373.4,64.2 5276.9,-271 5413.5,-291.9 371.1,-452.6 -448.7,-1190 -448.7,-1190"
         style="fill:#ffc5a6;fill-opacity:1;fill-rule:nonzero;stroke:none"
         id="path92" /><path
         d="m 23618.8,4654.4 1855,1212.1 168.1,-283.1 -1916.9,-1259.3 -106.2,330.3"
         style="fill:#ff7e67;fill-opacity:1;fill-rule:nonzero;stroke:none"
         id="path94" /><path
         d="m 25580.4,5687 -1677,-1107.8 c 0,0 16,-58.5 33.5,-115.9 l 1705,1120.1 -61.5,103.6"
         style="fill:#e04545;fill-opacity:1;fill-rule:nonzero;stroke:none"
         id="path96" /><path
         d="m 21067.4,5592.9 c 1138.3,-81.4 2220.9,-255.4 2378.8,-275.1 157.8,-19.7 318,-68.2 422.5,-290.7 96.8,-205.9 183.9,-405.8 212.4,-508.7 20.8,-83.2 47.6,-506.5 -85.8,-720 -44.9,-72 -226.1,-67.4 -312.4,-52 -156.8,28.2 -181.3,83 -219.7,111.4 -138,-148.5 -416.5,-211.4 -416.5,-211.4 -50.9,-135.8 -219.2,-274.4 -292.8,-309.1 -55.2,-26.1 -99.7,-18.8 -99.7,-18.8 -49.4,-135.2 -274.7,-278.8 -274.7,-278.8 -126.4,-41.5 -736.8,166.1 -804.5,221.4 -67.7,55.3 -87,342.5 -76.4,379.6 -236.2,37.9 -1347.4,647.1 -1352.6,853.4 -5.1,206.4 -108,642.6 921.4,1098.8"
         style="fill:#ffc5a6;fill-opacity:1;fill-rule:nonzero;stroke:none"
         id="path98" /><path
         d="m 21498.6,3640.7 c 10.1,1.4 648.2,-178.7 648.2,-178.7 l 24.6,-214.1 c 0,0 -57.4,144.9 -65.3,145.5 -7.9,0.6 -612.9,172 -612.9,172 l 5.4,75.3"
         style="fill:#f0a17d;fill-opacity:1;fill-rule:nonzero;stroke:none"
         id="path100" /><path
         d="m 23050.1,4215.1 -3.4,-568.7 c 0,0 26.3,6 66.5,18.5 l -63.1,550.2"
         style="fill:#f0a17d;fill-opacity:1;fill-rule:nonzero;stroke:none"
         id="path102" /><path
         d="m 22654.2,3318.5 6.4,571.3 57.5,-565.7 c -23.8,-13.6 -63.9,-5.6 -63.9,-5.6"
         style="fill:#f0a17d;fill-opacity:1;fill-rule:nonzero;stroke:none"
         id="path104" /><path
         d="m 18264.4,9111.1 c 1264.7,220.3 2326.4,-251.6 2326.4,-251.6 -1292.5,1163.1 -2326.4,251.6 -2326.4,251.6"
         style="fill:#e04545;fill-opacity:1;fill-rule:nonzero;stroke:none"
         id="path106" /><path
         d="m 22053.5,4365 c 1125.1,104.7 1698.7,861.2 1993.6,1321.3 295,460 861.2,3892.8 861.2,3892.8 L 22973.7,9484.7 22053.5,4365"
         style="fill:#f0a17d;fill-opacity:1;fill-rule:nonzero;stroke:none"
         id="path108" /><path
         d="m 22059.4,4394.5 c -1032.2,35.4 -1705.1,966.4 -1250.4,1072 454.7,105.5 684.2,-252.1 996.8,-488 312.6,-236 253.6,-584 253.6,-584"
         style="fill:#f0a17d;fill-opacity:1;fill-rule:nonzero;stroke:none"
         id="path110" /><path
         d="m 24500.8,7367 c 62.5,304.7 122.7,617.1 176.9,907.7 l -1490.2,530.3 -327.4,-2822.4 519.4,-353.9 387.5,1915.5 c 0,0 359.7,-22.2 733.8,-177.2"
         style="fill:#f0a17d;fill-opacity:1;fill-rule:nonzero;stroke:none"
         id="path112" /><path
         d="m 24890.6,11755.6 c 808.1,-466 265.4,-4500.4 241.8,-4547.6 -731.4,719.6 -2489.1,1179.7 -2489.1,1179.7 637.1,2371.1 1439.2,3503.5 2247.3,3367.9"
         style="fill:#f95959;fill-opacity:1;fill-rule:nonzero;stroke:none"
         id="path114" /><path
         d="m 23571.6,10511.4 c 218.2,489.5 766.8,996.8 766.8,996.8 0,0 -690.1,-501.4 -749.1,-642.9 -59,-141.6 -17.7,-353.9 -17.7,-353.9"
         style="fill:#e04545;fill-opacity:1;fill-rule:nonzero;stroke:none"
         id="path116" /><path
         d="m 22525.4,11584.5 c 0,0 -1533.6,-3916.4 -1899.3,-5084.3 -365.7,-1167.8 731.4,-2194.1 1427.4,-2135.2 696,59 1326,719.6 1403.8,1580.8 37.9,419.3 365.7,5889.4 353.9,6042.8 -448.3,448.2 -1285.8,-404.1 -1285.8,-404.1"
         style="fill:#ffc5a6;fill-opacity:1;fill-rule:nonzero;stroke:none"
         id="path118" /><path
         d="m 23811.2,11988.6 c 0,1271 -101.7,2487.6 -110.6,2664.5 -8.8,176.9 -185.2,357.2 -411.4,491 -209.4,123.9 -498.4,320 -604.6,359.8 -115,39.8 -563.2,16.2 -952.5,16.2 -389.3,0 -560.4,121 -743.2,115.1 -182.9,-5.9 34.8,-493.4 376,-637 168.1,-70.8 747.6,-72.3 971.7,-1.5 230.1,-141.6 407,-271.3 407,-271.3 -294.9,7.9 -637.5,-12.6 -678.3,-47.2 -166.6,-141.6 -153.3,-336.2 -153.3,-336.2 -146.8,-45.7 -259.6,-206.5 -314.9,-268.4 -44.2,-49.5 -59.7,-141.6 -59.7,-141.6 -146,-44.2 -314.1,-283.1 -314.1,-283.1 -53,-137.1 119.5,-831.6 172.6,-911.3 53,-79.6 353.9,-123.8 393.7,-115 22.1,-265.4 579.5,-1548.3 796.2,-1570.4 216.8,-22.1 668,-171 1225.4,936.4"
         style="fill:#ffc5a6;fill-opacity:1;fill-rule:nonzero;stroke:none"
         id="path120" /><path
         d="m 21789.6,12622.6 c 2.2,11.1 -139.4,734.4 -139.4,734.4 l -223.4,44.2 c 0,0 148.2,-75.2 148.2,-84.1 0,-8.8 135,-694.5 135,-694.5 h 79.6"
         style="fill:#f0a17d;fill-opacity:1;fill-rule:nonzero;stroke:none"
         id="path122" /><path
         d="m 22743.6,14725.4 439.4,-107.7 -617,231.3 z"
         style="fill:#f0a17d;fill-opacity:1;fill-rule:nonzero;stroke:none"
         id="path124" /><path
         d="m 21912,14342 598.6,-41.3 -595.7,117.9 z"
         style="fill:#f0a17d;fill-opacity:1;fill-rule:nonzero;stroke:none"
         id="path126" /><path
         d="m 21537.4,13932 601.7,-38.3 -582.5,102.6 c -16.1,-25.5 -19.2,-64.3 -19.2,-64.3"
         style="fill:#f0a17d;fill-opacity:1;fill-rule:nonzero;stroke:none"
         id="path128" /><path
         d="m 20302.6,4298.4 -291.3,288.6 108.1,-309.1 z"
         style="fill:#f0a17d;fill-opacity:1;fill-rule:nonzero;stroke:none"
         id="path130" /><path
         d="m 23463.2,3857.8 c 31.7,284.6 42.8,651.7 42.8,651.7 l 150.4,-272 c -59.7,30.9 -88.5,76 -88.5,76 -17.7,-272.9 -1.4,-532.8 -1.4,-532.8 -42.8,7.8 -103.3,77.1 -103.3,77.1"
         style="fill:#f0a17d;fill-opacity:1;fill-rule:nonzero;stroke:none"
         id="path132" /><path
         d="m 17955.7,16965.9 c -270.3,119 -629.9,20.8 -700.6,-313.2 -87,-410.5 183.4,-853.6 542.2,-1026.2 358.9,-172.5 1049.8,-64.7 1227.7,129.2 279.3,304.5 -599.8,1003.5 -1069.3,1210.2"
         style="fill:#ffc5a6;fill-opacity:1;fill-rule:nonzero;stroke:none"
         id="path134" /><path
         d="m 18864.9,16100.8 c 0,0 -224.7,-0.8 -318.9,52.5 -94.3,53.3 -308.8,364.1 -308.8,364.1 -366.4,195.3 -787,123.7 -768.4,-190.8 58.7,147.5 159.8,210.1 313.6,221.4 153.8,11.4 393.4,-78.4 412,-91.9 61.6,-117 264.6,-314 264.6,-314 -84,-175.4 -116.1,-206 -116.1,-206 3.9,167 212,138.7 212,138.7 147.1,-30.1 310,26 310,26"
         style="fill:#f0a17d;fill-opacity:1;fill-rule:nonzero;stroke:none"
         id="path136" /><path
         d="m 17841.6,16543.6 c 155.5,-41.4 -109.8,-278.4 67.3,-510.5 177.1,-232.1 769.2,-166.5 775.7,-73.5 6.5,93 -35.1,133.6 -35.1,133.6 l -195.8,70.8 -257.8,316.7 c 0,0 -259,75.7 -354.3,62.9"
         style="fill:#f0a17d;fill-opacity:1;fill-rule:nonzero;stroke:none"
         id="path138" /><path
         d="m 25408.1,22147.7 -923.5,603.1 560.2,1418.9 1329.1,384.3 -474.2,1102.7 -1090.9,-248.8 16.4,-1070.8 -1155.7,-95 -109.7,985.3 539.3,1537.8 2367,200.6 978.1,-1052.8 -375.1,-2434.1 -1298.1,-387 z m -1220.8,-1205.5 -69.3,731.9 459.1,342.7 1065.1,-139.3 -108.5,-981.8 -1346.4,46.5"
         style="fill:#ff7e67;fill-opacity:1;fill-rule:nonzero;stroke:none"
         id="path140" /><path
         d="m 27260.1,13650 -545.7,556.3 602.1,894.3 975.6,63.5 -159.9,833 -790.7,-6.1 -151.2,-741.6 -812.1,110 73.9,696.6 605.6,979.5 1664.1,-220.9 515.1,-875 -628.2,-1623 -954.8,-70 z m -1025.5,-646.7 63.3,515.7 368.9,166.7 714,-257.7 -224.1,-661.2 -922.1,236.5"
         style="fill:#ff7e67;fill-opacity:1;fill-rule:nonzero;stroke:none"
         id="path142" /><path
         d="m 13804.9,12870.9 -385.7,455.6 146.8,441.3 774.2,401.4 383.3,-704.6 z m 253.9,1369.6 -895,-26.6 -285.2,1205.3 707.1,872.8 -827.6,514.6 -611.4,-672 507.8,-705.8 -725.9,-599.6 -530.3,605.5 -354.3,1274.9 1483.9,1232 1140.2,-247.5 879.6,-1795.8 -685.3,-860.2 196.4,-797.6"
         style="fill:#ff7e67;fill-opacity:1;fill-rule:nonzero;stroke:none"
         id="path144" /><path
         d="m 25868.5,6001.1 -394.7,-134.6 c 0,0 -14.4,-38.7 43.1,-75.2 0,0 -28.7,-87.4 63.5,-104.3 0,0 -7.1,-108.1 61.5,-103.6 l 280,332.2 c -24.6,17.7 -48.6,45.4 -53.4,85.5"
         style="fill:#ffc5a6;fill-opacity:1;fill-rule:nonzero;stroke:none"
         id="path146" /><path
         d="m 25868.5,6001.1 c 4.8,-40.1 28.8,-67.8 53.4,-85.5 l 122.6,145.5 -176,-60"
         style="fill:#233142;fill-opacity:1;fill-rule:nonzero;stroke:none"
         id="path148" /></g></g></svg>
